<svg id="Fulcrum_Logo" data-name="Fulcrum Logo" xmlns="http://www.w3.org/2000/svg" width="926.281" height="194.75" viewBox="0 0 926.281 194.75">
  <metadata><?xpacket begin="﻿" id="W5M0MpCehiHzreSzNTczkc9d"?>
<x:xmpmeta xmlns:x="adobe:ns:meta/" x:xmptk="Adobe XMP Core 5.6-c138 79.159824, 2016/09/14-01:09:01        ">
   <rdf:RDF xmlns:rdf="http://www.w3.org/1999/02/22-rdf-syntax-ns#">
      <rdf:Description rdf:about=""/>
   </rdf:RDF>
</x:xmpmeta>
                                                                                                    
                                                                                                    
                                                                                                    
                                                                                                    
                                                                                                    
                                                                                                    
                                                                                                    
                                                                                                    
                                                                                                    
                                                                                                    
                                                                                                    
                                                                                                    
                                                                                                    
                                                                                                    
                                                                                                    
                                                                                                    
                                                                                                    
                                                                                                    
                                                                                                    
                                                                                                    
                           
<?xpacket end="w"?></metadata>
<defs>
    <style>
      .cls-1 {
        fill: #0e6716;
      }

      .cls-1, .cls-2 {
        fill-rule: evenodd;
      }

      .cls-2 {
        fill: #232323;
      }
    </style>
  </defs>
  <path class="cls-1" d="M13.533,163.936L0,191.01l47.329-.785-33.8-26.289m19.024-38.072L18.227,154.541l38.948,16.711L32.556,125.864m128.425,1.166-24.1,44.222,38.427-16.446-14.33-27.776M95.449,0L36.763,117.449l38.15,39.681L69.833,77.363l27.2,74.728,27.383-74.728-5.265,79.767,37.372-38.749L95.449,0M180.193,164.27l-33.466,25.955,47.26,0.783L180.193,164.27"/>
  <path id="Fulcrum" class="cls-2" d="M249.824,22.664v101.8h3.995V76.1h49.029V72.7H253.819V26.067h56.292v-3.4H249.824Zm109.9,96.695a30.457,30.457,0,0,1-10.569-7.675,33.9,33.9,0,0,1-6.61-11.476,42.741,42.741,0,0,1-2.288-14.118V22.664h-4v63.57a44.971,44.971,0,0,0,2.615,15.458,37.477,37.477,0,0,0,7.482,12.562A34.671,34.671,0,0,0,358.2,122.69a41.447,41.447,0,0,0,31.343,0,35.149,35.149,0,0,0,11.839-8.435,37.153,37.153,0,0,0,7.518-12.562,44.971,44.971,0,0,0,2.615-15.458V22.664h-4.067v63.57a42.4,42.4,0,0,1-2.289,14.082,33.571,33.571,0,0,1-6.609,11.4,30.781,30.781,0,0,1-10.533,7.638A37.279,37.279,0,0,1,359.721,119.359ZM452.4,22.664h-4v101.8H503.03v-3.476H452.4V22.664Zm141.639,87.174a67.021,67.021,0,0,1-6.573,5.286,36.743,36.743,0,0,1-7.191,3.909,40.419,40.419,0,0,1-8.535,2.39,62.783,62.783,0,0,1-10.532.8,44.673,44.673,0,0,1-17.36-3.33,39.836,39.836,0,0,1-13.873-9.594,44.2,44.2,0,0,1-9.189-15.277,59.133,59.133,0,0,1-3.3-20.454,58.456,58.456,0,0,1,3.3-20.237,44.011,44.011,0,0,1,9.261-15.313,40.553,40.553,0,0,1,14.237-9.7,47.327,47.327,0,0,1,18.159-3.4A48.028,48.028,0,0,1,579.007,27.7a36.075,36.075,0,0,1,5.7,2.607q2.432,1.412,4.14,2.607t2.76,1.991a3.259,3.259,0,0,0,1.489.8,1.223,1.223,0,0,0,1.162-.507l1.09-1.593a51.469,51.469,0,0,0-14.745-8.978,49.373,49.373,0,0,0-18.159-3.113,51.4,51.4,0,0,0-19.939,3.765,45.045,45.045,0,0,0-15.544,10.607A47.524,47.524,0,0,0,516.9,52.314a60.688,60.688,0,0,0-3.559,21.25A61.87,61.87,0,0,0,516.9,95.14a48.158,48.158,0,0,0,9.879,16.4,43.037,43.037,0,0,0,15.072,10.426,49.147,49.147,0,0,0,19.139,3.656,59.43,59.43,0,0,0,11.585-1.05,49.36,49.36,0,0,0,9.7-2.932,42.739,42.739,0,0,0,8.136-4.525,54.987,54.987,0,0,0,6.9-5.829l-1.525-1.593a1.582,1.582,0,0,0-.8-0.362,1.423,1.423,0,0,0-.945.507h0Zm49.682-33.305a19.434,19.434,0,0,1,2.579.145,7.146,7.146,0,0,1,1.816.471,5.715,5.715,0,0,1,1.38.833,7.11,7.11,0,0,1,1.2,1.3l36.027,43.949a2.661,2.661,0,0,0,1.2,1.013,4.246,4.246,0,0,0,1.416.218h3.269L654.62,78.487a9.414,9.414,0,0,0-2.543-2.172,46.016,46.016,0,0,0,12.857-2.534,30.361,30.361,0,0,0,9.878-5.684,25.17,25.17,0,0,0,6.32-8.507,25.993,25.993,0,0,0,2.251-10.933q0-13.1-8.643-19.549t-25.278-6.444H624.839v101.8h3.995V76.533h14.89ZM628.834,25.85h20.628q14.528,0,22.227,5.575t7.7,17.377a23.915,23.915,0,0,1-2.142,10.281,21.638,21.638,0,0,1-6.174,7.783,28.331,28.331,0,0,1-9.806,4.923,45.822,45.822,0,0,1-12.966,1.7H628.834V25.85Zm110.7,93.509a30.438,30.438,0,0,1-10.569-7.675,33.887,33.887,0,0,1-6.61-11.476,42.741,42.741,0,0,1-2.288-14.118V22.664h-4v63.57a44.971,44.971,0,0,0,2.615,15.458,37.46,37.46,0,0,0,7.482,12.562A34.671,34.671,0,0,0,738,122.69a41.447,41.447,0,0,0,31.343,0,35.159,35.159,0,0,0,11.839-8.435,37.153,37.153,0,0,0,7.518-12.562,44.971,44.971,0,0,0,2.615-15.458V22.664H787.25v63.57a42.4,42.4,0,0,1-2.288,14.082,33.556,33.556,0,0,1-6.61,11.4,30.777,30.777,0,0,1-10.532,7.638A37.279,37.279,0,0,1,739.529,119.359ZM876.664,98.616l-44.308-75.01a1.91,1.91,0,0,0-.763-0.76,2.384,2.384,0,0,0-.98-0.181h-2.4v101.8H831.7V31.353q0-.579-0.036-1.195t-0.109-1.195l44.162,75.01a2.105,2.105,0,0,0,1.816,1.231h0.727a2.066,2.066,0,0,0,1.743-1.231L922.86,29.108a9.207,9.207,0,0,0-.073,1.159v94.2h3.487V22.664h-2.4a2.382,2.382,0,0,0-.981.181,1.9,1.9,0,0,0-.762.76l-43,74.938q-0.365.725-.653,1.412T877.9,101.3Z"/>
  <path id="Equity_Partners" data-name="Equity Partners" class="cls-1" d="M248.458,168.971v21.361h13.193l0.015-2.355h-10.31v-7.289h8.337v-2.266h-8.337v-7.1h10.3v-2.355H248.458Zm42.7,6.283a10.161,10.161,0,0,0-2.152-3.458,9.637,9.637,0,0,0-3.339-2.258,11.924,11.924,0,0,0-8.614,0,9.651,9.651,0,0,0-3.331,2.258,10.161,10.161,0,0,0-2.152,3.458,13.113,13.113,0,0,0,0,8.81,10.073,10.073,0,0,0,2.152,3.451,9.614,9.614,0,0,0,3.331,2.243,11.224,11.224,0,0,0,4.3.8,12.013,12.013,0,0,0,1.92-.149,12.668,12.668,0,0,0,1.771-.417l3.75,4.084a1.917,1.917,0,0,0,.762.522,2.851,2.851,0,0,0,.956.149h2.391l-5.483-5.918a9.614,9.614,0,0,0,1.882-1.655,9.961,9.961,0,0,0,1.42-2.117,11.047,11.047,0,0,0,.889-2.526,13.083,13.083,0,0,0,.306-2.87A12.306,12.306,0,0,0,291.16,175.254Zm-2.749,7.931a7.489,7.489,0,0,1-1.524,2.638,6.544,6.544,0,0,1-2.391,1.655,8.821,8.821,0,0,1-6.26,0,6.6,6.6,0,0,1-2.4-1.655,7.413,7.413,0,0,1-1.532-2.638,11.846,11.846,0,0,1,0-7.059,7.415,7.415,0,0,1,1.532-2.646,6.686,6.686,0,0,1,2.4-1.662,8.722,8.722,0,0,1,6.26,0,6.634,6.634,0,0,1,2.391,1.662,7.49,7.49,0,0,1,1.524,2.646A11.846,11.846,0,0,1,288.411,183.185Zm20.387,4.4a5.043,5.043,0,0,1-1.778-1.26,5.469,5.469,0,0,1-1.106-1.922,7.592,7.592,0,0,1-.381-2.46V168.971h-2.884v12.984a9.707,9.707,0,0,0,.591,3.428,7.893,7.893,0,0,0,1.695,2.736,7.8,7.8,0,0,0,2.69,1.811,9.966,9.966,0,0,0,7.112,0,7.717,7.717,0,0,0,2.682-1.811,7.952,7.952,0,0,0,1.688-2.736,9.707,9.707,0,0,0,.59-3.428V168.971h-2.883v12.984a7.581,7.581,0,0,1-.381,2.459,5.464,5.464,0,0,1-1.106,1.923,4.99,4.99,0,0,1-1.77,1.253A6.5,6.5,0,0,1,308.8,187.582Zm25.87-18.611h-2.9v21.361h2.9V168.971Zm10.056,0v2.43h6.947v18.931h2.884V171.4h6.933v-2.43H344.724Zm42.687,0h-2.555a0.9,0.9,0,0,0-.613.209,1.637,1.637,0,0,0-.374.462l-4.885,8.3q-0.27.522-.478,0.976t-0.374.9q-0.165-.447-0.381-0.9t-0.486-.976l-4.9-8.3a1.656,1.656,0,0,0-.389-0.484,0.923,0.923,0,0,0-.612-0.187h-2.54l7.844,12.85v8.511h2.9v-8.511Zm29.3,13.371a10.76,10.76,0,0,0,3.429-.5,7.114,7.114,0,0,0,2.5-1.394,5.862,5.862,0,0,0,1.532-2.131,6.949,6.949,0,0,0,.523-2.728,7.326,7.326,0,0,0-.486-2.728,5.379,5.379,0,0,0-1.471-2.087,6.8,6.8,0,0,0-2.488-1.334,11.887,11.887,0,0,0-3.534-.47h-6.32v21.361h2.884v-7.99h3.436Zm-3.436-11.09h3.436a5.547,5.547,0,0,1,3.833,1.148,4.094,4.094,0,0,1,1.262,3.19,4.8,4.8,0,0,1-.329,1.8,3.761,3.761,0,0,1-.978,1.409,4.564,4.564,0,0,1-1.6.917,6.684,6.684,0,0,1-2.189.328h-3.436v-8.795Zm29.285-2.281H439.63l-8.561,21.361h2.241a0.959,0.959,0,0,0,.628-0.208,1.041,1.041,0,0,0,.343-0.477l2-5.158h9.608l2,5.158a1.185,1.185,0,0,0,.358.492,0.969,0.969,0,0,0,.628.193h2.241Zm-2.107,4.755a8.984,8.984,0,0,0,.321-0.9q0.157-.514.307-1.1,0.164,0.581.321,1.088a9.178,9.178,0,0,0,.321.894l3.362,8.691H437.09Zm25.444,7.692a1.978,1.978,0,0,1,.9.157,1.647,1.647,0,0,1,.546.514l5.558,7.632a1.266,1.266,0,0,0,1.165.611h2.57l-6.245-8.481a3.342,3.342,0,0,0-.956-0.91,7.739,7.739,0,0,0,2.218-.827,6.34,6.34,0,0,0,1.659-1.342,5.578,5.578,0,0,0,1.038-1.766,6.139,6.139,0,0,0,.359-2.117,6.253,6.253,0,0,0-.463-2.452,4.758,4.758,0,0,0-1.427-1.871,6.737,6.737,0,0,0-2.443-1.185,13.264,13.264,0,0,0-3.511-.41h-6.052v21.361H463.7v-8.914h2.2Zm-2.2-10.166h3.168a6.108,6.108,0,0,1,3.765.969,3.409,3.409,0,0,1,1.255,2.877,4.35,4.35,0,0,1-.329,1.714,3.579,3.579,0,0,1-.978,1.334,4.56,4.56,0,0,1-1.614.865,7.339,7.339,0,0,1-2.219.305H463.7v-8.064Zm19.722-2.281v2.43h6.948v18.931h2.884V171.4h6.932v-2.43H483.422Zm28.3,0h-1.494v21.361h2.54V175.113q0-.3-0.015-0.656c-0.01-.239-0.025-0.482-0.045-0.731l12.386,16.085a1.452,1.452,0,0,0,.456.4,1.243,1.243,0,0,0,.575.119h1.45V168.971h-2.54V184.1q0,0.328.022,0.694t0.052,0.752l-12.386-16.084a2.372,2.372,0,0,0-.224-0.246,0.955,0.955,0,0,0-.209-0.149,0.816,0.816,0,0,0-.239-0.074,2.039,2.039,0,0,0-.329-0.023h0Zm28.194,0v21.361h13.193l0.015-2.355h-10.31v-7.289h8.338v-2.266h-8.338v-7.1h10.295v-2.355H539.915Zm29.21,12.447a1.981,1.981,0,0,1,.9.157,1.645,1.645,0,0,1,.545.514l5.558,7.632a1.268,1.268,0,0,0,1.166.611h2.57l-6.246-8.481a3.342,3.342,0,0,0-.956-0.91,7.745,7.745,0,0,0,2.219-.827,6.335,6.335,0,0,0,1.658-1.342,5.581,5.581,0,0,0,1.039-1.766,6.139,6.139,0,0,0,.358-2.117,6.235,6.235,0,0,0-.463-2.452,4.749,4.749,0,0,0-1.427-1.871,6.729,6.729,0,0,0-2.443-1.185,13.259,13.259,0,0,0-3.511-.41h-6.051v21.361h2.884v-8.914h2.2Zm-2.2-10.166H570.1a6.106,6.106,0,0,1,3.765.969,3.409,3.409,0,0,1,1.255,2.877,4.35,4.35,0,0,1-.328,1.714,3.592,3.592,0,0,1-.979,1.334,4.543,4.543,0,0,1-1.614.865,7.332,7.332,0,0,1-2.218.305h-3.048v-8.064Zm34.364-.313a7.712,7.712,0,0,0-2.592-1.64,9.034,9.034,0,0,0-3.265-.566,7.593,7.593,0,0,0-2.831.492,6.288,6.288,0,0,0-2.077,1.311,5.66,5.66,0,0,0-1.726,4.07,5.687,5.687,0,0,0,.441,2.377,4.8,4.8,0,0,0,1.158,1.6,6.076,6.076,0,0,0,1.644,1.043,19.6,19.6,0,0,0,1.882.708q0.957,0.306,1.883.6a8.086,8.086,0,0,1,1.643.708,3.656,3.656,0,0,1,1.158,1.036,2.67,2.67,0,0,1,.441,1.587,4.1,4.1,0,0,1-.3,1.6,3.448,3.448,0,0,1-.859,1.23,3.9,3.9,0,0,1-1.367.8,5.53,5.53,0,0,1-1.838.283,6.361,6.361,0,0,1-1.479-.157,6.222,6.222,0,0,1-1.173-.4,5.821,5.821,0,0,1-.919-0.521q-0.4-.284-0.717-0.522t-0.56-.395a0.856,0.856,0,0,0-.441-0.157,0.686,0.686,0,0,0-.381.112,1.094,1.094,0,0,0-.291.276l-0.837,1.371a8.907,8.907,0,0,0,2.913,2.035,9.291,9.291,0,0,0,3.8.753,8.313,8.313,0,0,0,3.04-.522,6.541,6.541,0,0,0,2.256-1.431,6.059,6.059,0,0,0,1.4-2.139,7.192,7.192,0,0,0,.478-2.631,5.113,5.113,0,0,0-.44-2.236,4.726,4.726,0,0,0-1.166-1.535,6.6,6.6,0,0,0-1.643-1.036q-0.92-.411-1.883-0.738t-1.883-.634a8.85,8.85,0,0,1-1.643-.723,3.79,3.79,0,0,1-1.166-1.006,2.41,2.41,0,0,1-.44-1.483,3.322,3.322,0,0,1,.254-1.305,2.9,2.9,0,0,1,.754-1.05,3.64,3.64,0,0,1,1.24-.708,5.132,5.132,0,0,1,1.711-.261,5.354,5.354,0,0,1,1.756.253,6.917,6.917,0,0,1,1.24.559q0.514,0.306.859,0.559a1.065,1.065,0,0,0,.6.253,0.644,0.644,0,0,0,.381-0.111,1.12,1.12,0,0,0,.291-0.336Z"/>
</svg>
