<?xml version="1.0" standalone="no"?>
<!DOCTYPE svg PUBLIC "-//W3C//DTD SVG 20010904//EN"
 "http://www.w3.org/TR/2001/REC-SVG-20010904/DTD/svg10.dtd">
<svg version="1.0" xmlns="http://www.w3.org/2000/svg"
 width="706.000000pt" height="706.000000pt" viewBox="0 0 706.000000 706.000000"
 preserveAspectRatio="xMidYMid meet">
<metadata>
Created by potrace 1.11, written by Peter Selinger 2001-2013
</metadata>
<g transform="translate(0.000000,706.000000) scale(0.100000,-0.100000)"
fill="#000000" stroke="none">
<path d="M1720 7034 c-176 -34 -306 -118 -384 -248 -72 -120 -70 -86 -70 -918
-1 -412 1 -748 4 -748 3 0 34 10 70 21 114 36 184 53 265 65 22 3 60 10 84 14
48 9 381 6 421 -4 14 -3 41 -8 60 -10 78 -12 162 -33 263 -67 31 -10 60 -19
65 -19 10 0 8 1475 -3 1530 -5 25 -9 47 -10 50 -27 132 -141 252 -291 304
-123 43 -340 57 -474 30z"/>
<path d="M5529 7046 c-2 -2 -24 -7 -49 -11 -62 -9 -154 -43 -220 -81 -59 -34
-146 -115 -161 -149 -9 -21 -31 -57 -39 -65 -3 -3 -6 -11 -8 -19 -2 -8 -10
-40 -18 -70 -12 -48 -14 -241 -14 -1281 l-1 -1225 -768 0 -768 0 28 -66 c86
-202 124 -439 106 -664 -8 -95 -18 -166 -33 -220 -17 -62 -24 -87 -28 -100
-10 -41 -33 -100 -58 -152 -6 -13 -8 -26 -4 -30 4 -4 348 -8 764 -8 l757 0 2
-490 c1 -270 3 -501 3 -515 1 -14 1 -127 1 -252 0 -126 0 -235 0 -243 0 -8 0
-116 0 -240 0 -124 0 -233 0 -242 -3 -420 1 -514 20 -588 6 -22 10 -42 9 -44
-1 -2 2 -7 7 -10 4 -3 17 -24 28 -46 39 -77 141 -157 242 -190 102 -33 177
-42 318 -39 159 3 168 4 250 32 164 54 272 151 337 304 l23 53 2 3120 c3 3092
3 3121 -17 3193 -47 168 -159 270 -351 317 -59 15 -349 32 -360 21z"/>
<path d="M1780 4615 c-94 -40 -170 -131 -184 -220 -2 -16 -5 -150 -5 -297 l-1
-267 -288 -3 c-227 -2 -293 -6 -305 -17 -10 -7 -17 -10 -17 -7 0 16 -93 -59
-120 -96 -111 -153 -54 -372 118 -451 47 -22 110 -25 570 -27 l42 0 0 -277 c0
-287 2 -308 45 -384 59 -106 206 -167 328 -136 81 20 164 89 201 167 20 42 21
64 24 338 2 160 6 292 10 292 4 0 131 2 282 3 267 2 276 3 325 26 129 62 202
215 166 348 -24 88 -120 190 -196 209 -16 4 -33 8 -37 9 -5 1 -129 3 -277 4
l-270 1 -3 293 c-3 276 -4 295 -25 339 -35 76 -118 147 -193 165 -61 15 -138
10 -190 -12z"/>
<path d="M1265 1178 l1 -763 24 -75 c35 -111 85 -178 178 -240 50 -33 129 -65
182 -74 19 -3 55 -9 80 -14 53 -10 245 -8 310 2 24 4 59 14 77 21 18 8 33 12
33 9 0 -2 24 8 53 23 28 15 54 27 57 28 16 2 101 76 133 116 40 51 86 136 92
172 3 12 8 36 12 52 8 37 11 1505 2 1505 -4 0 -26 -7 -50 -16 -24 -9 -48 -17
-54 -18 -5 -1 -26 -7 -45 -14 -41 -13 -165 -39 -230 -47 -25 -3 -61 -8 -80
-10 -44 -6 -251 -6 -310 0 -80 8 -165 21 -245 39 -11 3 -58 17 -105 31 -47 15
-92 29 -100 31 -14 5 -15 -81 -15 -758z"/>
</g>
</svg>
